<svg width="39" height="38" viewBox="0 0 39 38" fill="none" xmlns="http://www.w3.org/2000/svg">
<path d="M12.5 2L1.5 1.5V36H37L36.5 6H17L12.5 2Z" fill="white" stroke="black" stroke-linejoin="round"/>
<path d="M12.9229 1.21094L16.6123 5.59082H37.5195V36.9775H1V1.0332H12.7725L12.9229 1.21094ZM2 12.6689V35.9775H36.5195V12.6689H2ZM2 11.6689H36.5195V6.59082H16.1475L15.998 6.41309L12.3066 2.0332H2V11.6689Z" fill="black"/>
<path d="M12.9229 1.21094L16.6123 5.59082H37.5195V36.9775H1V1.0332H12.7725L12.9229 1.21094ZM2 12.6689V35.9775H36.5195V12.6689H2ZM2 11.6689H36.5195V6.59082H16.1475L15.998 6.41309L12.3066 2.0332H2V11.6689Z" fill="white" fill-opacity="0.2"/>
<path d="M12.9229 1.21094L13.3053 0.888811L13.3045 0.887966L12.9229 1.21094ZM16.6123 5.59082L16.2299 5.91295L16.3797 6.09082H16.6123V5.59082ZM37.5195 5.59082H38.0195V5.09082H37.5195V5.59082ZM37.5195 36.9775V37.4775H38.0195V36.9775H37.5195ZM1 36.9775H0.5V37.4775H1V36.9775ZM1 1.0332V0.533203H0.5V1.0332H1ZM12.7725 1.0332L13.1542 0.710232L13.0044 0.533203H12.7725V1.0332ZM2 12.6689V12.1689H1.5V12.6689H2ZM2 35.9775H1.5V36.4775H2V35.9775ZM36.5195 35.9775V36.4775H37.0195V35.9775H36.5195ZM36.5195 12.6689H37.0195V12.1689H36.5195V12.6689ZM2 11.6689H1.5V12.1689H2V11.6689ZM36.5195 11.6689V12.1689H37.0195V11.6689H36.5195ZM36.5195 6.59082H37.0195V6.09082H36.5195V6.59082ZM16.1475 6.59082L15.7647 6.91256L15.9146 7.09082H16.1475V6.59082ZM15.998 6.41309L16.3808 6.09134L16.3804 6.09086L15.998 6.41309ZM12.3066 2.0332L12.689 1.71098L12.5391 1.5332H12.3066V2.0332ZM2 2.0332V1.5332H1.5V2.0332H2ZM12.9229 1.21094L12.5404 1.53306L16.2299 5.91295L16.6123 5.59082L16.9947 5.26869L13.3053 0.888812L12.9229 1.21094ZM16.6123 5.59082V6.09082H37.5195V5.59082V5.09082H16.6123V5.59082ZM37.5195 5.59082H37.0195V36.9775H37.5195H38.0195V5.59082H37.5195ZM37.5195 36.9775V36.4775H1V36.9775V37.4775H37.5195V36.9775ZM1 36.9775H1.5V1.0332H1H0.5V36.9775H1ZM1 1.0332V1.5332H12.7725V1.0332V0.533203H1V1.0332ZM12.7725 1.0332L12.3908 1.35617L12.5412 1.53391L12.9229 1.21094L13.3045 0.887966L13.1542 0.710232L12.7725 1.0332ZM2 12.6689H1.5V35.9775H2H2.5V12.6689H2ZM2 35.9775V36.4775H36.5195V35.9775V35.4775H2V35.9775ZM36.5195 35.9775H37.0195V12.6689H36.5195H36.0195V35.9775H36.5195ZM36.5195 12.6689V12.1689H2V12.6689V13.1689H36.5195V12.6689ZM2 11.6689V12.1689H36.5195V11.6689V11.1689H2V11.6689ZM36.5195 11.6689H37.0195V6.59082H36.5195H36.0195V11.6689H36.5195ZM36.5195 6.59082V6.09082H16.1475V6.59082V7.09082H36.5195V6.59082ZM16.1475 6.59082L16.5302 6.26908L16.3808 6.09134L15.998 6.41309L15.6153 6.73483L15.7647 6.91256L16.1475 6.59082ZM15.998 6.41309L16.3804 6.09086L12.689 1.71098L12.3066 2.0332L11.9243 2.35543L15.6157 6.73531L15.998 6.41309ZM12.3066 2.0332V1.5332H2V2.0332V2.5332H12.3066V2.0332ZM2 2.0332H1.5V11.6689H2H2.5V2.0332H2Z" fill="black"/>
</svg>
