<svg width="29" height="37" viewBox="0 0 29 37" fill="none" xmlns="http://www.w3.org/2000/svg">
<rect width="28" height="36" transform="translate(0.5 0.505859)" fill="white"/>
<path d="M28.5 36.5059H0.5V0.505859H28.5V36.5059ZM1.5 35.5059H27.5V1.50586H10V8.50586C10 8.70807 9.87821 8.89037 9.69141 8.96777C9.50457 9.04516 9.28948 9.00237 9.14648 8.85938L7 6.71289L4.85352 8.85938C4.71052 9.00237 4.49543 9.04516 4.30859 8.96777C4.12179 8.89037 4 8.70807 4 8.50586V1.50586H1.5V35.5059ZM5 7.29883L6.64648 5.65234L6.72461 5.58789C6.91869 5.45973 7.18265 5.48148 7.35352 5.65234L9 7.29883V1.50586H5V7.29883Z" fill="black"/>
<path d="M28.5 36.5059V37.0059C28.7761 37.0059 29 36.782 29 36.5059H28.5ZM0.5 36.5059H0C0 36.782 0.223858 37.0059 0.5 37.0059L0.5 36.5059ZM0.5 0.505859V0.00585938C0.223858 0.00585938 0 0.229717 0 0.505859L0.5 0.505859ZM28.5 0.505859H29C29 0.229717 28.7761 0.00585937 28.5 0.00585937V0.505859ZM1.5 35.5059H1C1 35.782 1.22386 36.0059 1.5 36.0059V35.5059ZM27.5 35.5059V36.0059C27.7761 36.0059 28 35.782 28 35.5059H27.5ZM27.5 1.50586H28C28 1.22972 27.7761 1.00586 27.5 1.00586V1.50586ZM10 1.50586V1.00586C9.72386 1.00586 9.5 1.22972 9.5 1.50586H10ZM9.69141 8.96777L9.88275 9.42971L9.88281 9.42969L9.69141 8.96777ZM9.14648 8.85938L9.50004 8.50582L9.50004 8.50582L9.14648 8.85938ZM7 6.71289L7.35355 6.35934C7.15829 6.16408 6.84171 6.16408 6.64645 6.35934L7 6.71289ZM4.85352 8.85938L4.49996 8.50582L4.49996 8.50582L4.85352 8.85938ZM4.30859 8.96777L4.11719 9.42969L4.11725 9.42971L4.30859 8.96777ZM4 1.50586H4.5C4.5 1.22972 4.27614 1.00586 4 1.00586V1.50586ZM1.5 1.50586V1.00586C1.22386 1.00586 1 1.22972 1 1.50586H1.5ZM5 7.29883H4.5C4.5 7.50106 4.62182 7.68338 4.80866 7.76077C4.9955 7.83816 5.21055 7.79538 5.35355 7.65238L5 7.29883ZM6.64648 5.65234L6.32829 5.26666C6.316 5.2768 6.3042 5.28752 6.29293 5.29879L6.64648 5.65234ZM6.72461 5.58789L6.44908 5.17066C6.43431 5.18041 6.42007 5.19094 6.40642 5.2022L6.72461 5.58789ZM7.35352 5.65234L6.99996 6.0059L6.99996 6.0059L7.35352 5.65234ZM9 7.29883L8.64645 7.65238C8.78945 7.79538 9.0045 7.83816 9.19134 7.76077C9.37818 7.68338 9.5 7.50106 9.5 7.29883H9ZM9 1.50586H9.5C9.5 1.22972 9.27614 1.00586 9 1.00586V1.50586ZM5 1.50586V1.00586C4.72386 1.00586 4.5 1.22972 4.5 1.50586H5ZM28.5 36.5059V36.0059H0.5V36.5059V37.0059H28.5V36.5059ZM0.5 36.5059H1V0.505859H0.5H0V36.5059H0.5ZM0.5 0.505859V1.00586H28.5V0.505859V0.00585938H0.5V0.505859ZM28.5 0.505859H28V36.5059H28.5H29V0.505859H28.5ZM1.5 35.5059V36.0059H27.5V35.5059V35.0059H1.5V35.5059ZM27.5 35.5059H28V1.50586H27.5H27V35.5059H27.5ZM27.5 1.50586V1.00586H10V1.50586V2.00586H27.5V1.50586ZM10 1.50586H9.5V8.50586H10H10.5V1.50586H10ZM10 8.50586H9.5L9.5 8.50586L9.69141 8.96777L9.88281 9.42969C10.2564 9.27487 10.5 8.91027 10.5 8.50586H10ZM9.69141 8.96777L9.50006 8.50583L9.50004 8.50582L9.14648 8.85938L8.79293 9.21293C9.07892 9.49892 9.50906 9.5845 9.88275 9.42971L9.69141 8.96777ZM9.14648 8.85938L9.50004 8.50582L7.35355 6.35934L7 6.71289L6.64645 7.06644L8.79293 9.21293L9.14648 8.85938ZM7 6.71289L6.64645 6.35934L4.49996 8.50582L4.85352 8.85938L5.20707 9.21293L7.35355 7.06644L7 6.71289ZM4.85352 8.85938L4.49996 8.50582L4.49994 8.50583L4.30859 8.96777L4.11725 9.42971C4.49094 9.5845 4.92108 9.49892 5.20707 9.21293L4.85352 8.85938ZM4.30859 8.96777L4.5 8.50586L4.5 8.50586H4H3.5C3.5 8.91027 3.74358 9.27487 4.11719 9.42969L4.30859 8.96777ZM4 8.50586H4.5V1.50586H4H3.5V8.50586H4ZM4 1.50586V1.00586H1.5V1.50586V2.00586H4V1.50586ZM1.5 1.50586H1V35.5059H1.5H2V1.50586H1.5ZM5 7.29883L5.35355 7.65238L7.00004 6.0059L6.64648 5.65234L6.29293 5.29879L4.64645 6.94527L5 7.29883ZM6.64648 5.65234L6.96468 6.03803L7.0428 5.97358L6.72461 5.58789L6.40642 5.2022L6.32829 5.26666L6.64648 5.65234ZM6.72461 5.58789L7.00014 6.00512L6.99996 6.0059L7.35352 5.65234L7.70707 5.29879C7.36544 4.95716 6.83803 4.91381 6.44908 5.17066L6.72461 5.58789ZM7.35352 5.65234L6.99996 6.0059L8.64645 7.65238L9 7.29883L9.35355 6.94527L7.70707 5.29879L7.35352 5.65234ZM9 7.29883H9.5V1.50586H9H8.5V7.29883H9ZM9 1.50586V1.00586H5V1.50586V2.00586H9V1.50586ZM5 1.50586H4.5V7.29883H5H5.5V1.50586H5Z" fill="black"/>
</svg>
