<svg width="30" height="37" viewBox="0 0 30 37" fill="none" xmlns="http://www.w3.org/2000/svg">
<path d="M21 1H1V36H28L28.5 8.5L21 1Z" fill="white"/>
<path d="M21.3896 0.506836L21.5361 0.65332L28.627 7.7627L28.7725 7.90918V36.5039H0.5V0.506836H21.3896ZM1.5 35.5039H27.7725V9.16211H20.1357V1.50684H1.5V35.5039ZM21.1357 8.16211H27.6133L21.1357 1.66797V8.16211Z" fill="black"/>
<path d="M21.3896 0.506836L21.7432 0.153283L21.5968 0.00683594H21.3896V0.506836ZM21.5361 0.65332L21.8901 0.300229L21.8897 0.299767L21.5361 0.65332ZM28.627 7.7627L28.9817 7.41033L28.981 7.4096L28.627 7.7627ZM28.7725 7.90918H29.2725V7.70305L29.1272 7.55681L28.7725 7.90918ZM28.7725 36.5039V37.0039H29.2725V36.5039H28.7725ZM0.5 36.5039H0V37.0039H0.5V36.5039ZM0.5 0.506836V0.00683594H0V0.506836H0.5ZM1.5 35.5039H1V36.0039H1.5V35.5039ZM27.7725 35.5039V36.0039H28.2725V35.5039H27.7725ZM27.7725 9.16211H28.2725V8.66211H27.7725V9.16211ZM20.1357 9.16211H19.6357V9.66211H20.1357V9.16211ZM20.1357 1.50684H20.6357V1.00684H20.1357V1.50684ZM1.5 1.50684V1.00684H1V1.50684H1.5ZM21.1357 8.16211H20.6357V8.66211H21.1357V8.16211ZM27.6133 8.16211V8.66211H28.8182L27.9673 7.80901L27.6133 8.16211ZM21.1357 1.66797L21.4897 1.31487L20.6357 0.458674V1.66797H21.1357ZM21.3896 0.506836L21.0361 0.860389L21.1826 1.00687L21.5361 0.65332L21.8897 0.299767L21.7432 0.153283L21.3896 0.506836ZM21.5361 0.65332L21.1821 1.00641L28.2729 8.11579L28.627 7.7627L28.981 7.4096L21.8901 0.300229L21.5361 0.65332ZM28.627 7.7627L28.2722 8.11506L28.4177 8.26155L28.7725 7.90918L29.1272 7.55681L28.9817 7.41033L28.627 7.7627ZM28.7725 7.90918H28.2725V36.5039H28.7725H29.2725V7.90918H28.7725ZM28.7725 36.5039V36.0039H0.5V36.5039V37.0039H28.7725V36.5039ZM0.5 36.5039H1V0.506836H0.5H0V36.5039H0.5ZM0.5 0.506836V1.00684H21.3896V0.506836V0.00683594H0.5V0.506836ZM1.5 35.5039V36.0039H27.7725V35.5039V35.0039H1.5V35.5039ZM27.7725 35.5039H28.2725V9.16211H27.7725H27.2725V35.5039H27.7725ZM27.7725 9.16211V8.66211H20.1357V9.16211V9.66211H27.7725V9.16211ZM20.1357 9.16211H20.6357V1.50684H20.1357H19.6357V9.16211H20.1357ZM20.1357 1.50684V1.00684H1.5V1.50684V2.00684H20.1357V1.50684ZM1.5 1.50684H1V35.5039H1.5H2V1.50684H1.5ZM21.1357 8.16211V8.66211H27.6133V8.16211V7.66211H21.1357V8.16211ZM27.6133 8.16211L27.9673 7.80901L21.4897 1.31487L21.1357 1.66797L20.7817 2.02107L27.2593 8.51521L27.6133 8.16211ZM21.1357 1.66797H20.6357V8.16211H21.1357H21.6357V1.66797H21.1357Z" fill="black"/>
</svg>
