<svg width="37" height="38" viewBox="0 0 37 38" fill="none" xmlns="http://www.w3.org/2000/svg">
<path d="M6 10L1 13V36.5H35.5V13.5L30.5 10V6.5H25.5L18.5 1.5L11.5 6.5H6V10Z" fill="white" stroke="black"/>
<path d="M17.9707 1.08789C18.141 0.971125 18.3658 0.971194 18.5361 1.08789L25.5986 5.93066H30.583C30.8589 5.93096 31.0829 6.15476 31.083 6.43066V9.69043L35.7969 12.9238C35.9326 13.0171 36.0136 13.1713 36.0137 13.3359V15.3086H36.0068V37.0078H0.5V15.3086H0.493164V13.3359C0.493212 13.1714 0.574406 13.0171 0.709961 12.9238L5.4248 9.68945V6.43066L5.43457 6.33008C5.48115 6.10218 5.68314 5.93066 5.9248 5.93066H10.9082L17.9707 1.08789ZM2.45898 36.0078H34.0479L18.2529 26.252L2.45898 36.0078ZM1.5 35.4248L17.3018 25.6641L1.5 15.9043V35.4248ZM19.2051 25.6641L35.0068 35.4248V15.9043L19.2051 25.6641ZM12.8291 21.7256L18.2529 25.0762L23.6777 21.7256H12.8291ZM6.4248 17.7695L11.3496 20.8115V20.7256H25.2969L30.083 17.7695V6.93066H6.4248V17.7695ZM28.1172 17.7803H8.39062V16.7803H28.1172V17.7803ZM5.4248 17.1514V15.3223H2.46094L5.4248 17.1514ZM31.083 17.1514L34.0459 15.3223H31.083V17.1514ZM1.49316 13.5996V14.3223H5.4248V10.9023L1.49316 13.5996ZM31.083 14.3223H35.0137V13.5996L31.083 10.9033V14.3223ZM28.1172 13.835H8.39062V12.835H28.1172V13.835ZM28.1172 9.88965H8.39062V8.88965H28.1172V9.88965ZM12.6768 5.93066H23.8291L18.2529 2.10742L12.6768 5.93066Z" fill="black"/>
<path d="M17.9707 1.08789L17.688 0.675492L17.6879 0.675524L17.9707 1.08789ZM18.5361 1.08789L18.8189 0.675524L18.8187 0.675389L18.5361 1.08789ZM25.5986 5.93066L25.3159 6.34303C25.3991 6.40011 25.4977 6.43066 25.5986 6.43066V5.93066ZM30.583 5.93066L30.5835 5.43066H30.583V5.93066ZM31.083 6.43066L31.583 6.43066L31.583 6.43055L31.083 6.43066ZM31.083 9.69043H30.583C30.583 9.85527 30.6643 10.0095 30.8002 10.1028L31.083 9.69043ZM35.7969 12.9238L36.08 12.5117L36.0797 12.5115L35.7969 12.9238ZM36.0137 13.3359L36.5137 13.3359L36.5137 13.3358L36.0137 13.3359ZM36.0137 15.3086V15.8086C36.2898 15.8086 36.5137 15.5847 36.5137 15.3086H36.0137ZM36.0068 15.3086V14.8086C35.7307 14.8086 35.5068 15.0325 35.5068 15.3086H36.0068ZM36.0068 37.0078V37.5078C36.283 37.5078 36.5068 37.284 36.5068 37.0078H36.0068ZM0.5 37.0078H0C0 37.284 0.223858 37.5078 0.5 37.5078L0.5 37.0078ZM0.5 15.3086H1C1 15.0325 0.776142 14.8086 0.5 14.8086L0.5 15.3086ZM0.493164 15.3086H-0.00683594C-0.00683594 15.5847 0.217022 15.8086 0.493164 15.8086L0.493164 15.3086ZM0.493164 13.3359L-0.00683594 13.3358V13.3359H0.493164ZM0.709961 12.9238L0.427117 12.5115L0.426579 12.5119L0.709961 12.9238ZM5.4248 9.68945L5.70765 10.1018C5.84357 10.0085 5.9248 9.85428 5.9248 9.68945H5.4248ZM5.4248 6.43066L4.92714 6.38235C4.92559 6.39841 4.9248 6.41453 4.9248 6.43066H5.4248ZM5.43457 6.33008L4.9447 6.22996C4.9412 6.24708 4.9386 6.26437 4.93691 6.28176L5.43457 6.33008ZM10.9082 5.93066V6.43066C11.0091 6.43066 11.1077 6.40011 11.191 6.34303L10.9082 5.93066ZM2.45898 36.0078L2.19622 35.5824C2.00604 35.6999 1.91694 35.9293 1.978 36.1444C2.03906 36.3594 2.23544 36.5078 2.45898 36.5078V36.0078ZM34.0479 36.0078V36.5078C34.2714 36.5078 34.4678 36.3594 34.5288 36.1444C34.5899 35.9293 34.5008 35.6999 34.3106 35.5824L34.0479 36.0078ZM18.2529 26.252L18.5157 25.8266C18.3546 25.7271 18.1512 25.7271 17.9902 25.8266L18.2529 26.252ZM1.5 35.4248H1C1 35.6061 1.09813 35.7732 1.25646 35.8615C1.4148 35.9498 1.60852 35.9455 1.76276 35.8502L1.5 35.4248ZM17.3018 25.6641L17.5645 26.0895C17.712 25.9984 17.8018 25.8374 17.8018 25.6641C17.8018 25.4907 17.712 25.3297 17.5645 25.2387L17.3018 25.6641ZM1.5 15.9043L1.76274 15.4789C1.6085 15.3836 1.41478 15.3793 1.25646 15.4676C1.09813 15.5559 1 15.723 1 15.9043H1.5ZM19.2051 25.6641L18.9423 25.2387C18.7949 25.3297 18.7051 25.4907 18.7051 25.6641C18.7051 25.8374 18.7948 25.9984 18.9423 26.0895L19.2051 25.6641ZM35.0068 35.4248L34.7441 35.8502C34.8983 35.9455 35.092 35.9498 35.2504 35.8615C35.4087 35.7732 35.5068 35.6061 35.5068 35.4248H35.0068ZM35.0068 15.9043H35.5068C35.5068 15.723 35.4087 15.5559 35.2504 15.4676C35.0921 15.3793 34.8983 15.3836 34.7441 15.4789L35.0068 15.9043ZM12.8291 21.7256V21.2256C12.6056 21.2256 12.4092 21.374 12.3481 21.589C12.2871 21.804 12.3761 22.0335 12.5663 22.151L12.8291 21.7256ZM18.2529 25.0762L17.9902 25.5016C18.1512 25.601 18.3546 25.601 18.5157 25.5016L18.2529 25.0762ZM23.6777 21.7256L23.9405 22.151C24.1307 22.0335 24.2198 21.8041 24.1587 21.589C24.0977 21.374 23.9013 21.2256 23.6777 21.2256V21.7256ZM6.4248 17.7695H5.9248C5.9248 17.9429 6.01458 18.1038 6.16205 18.1949L6.4248 17.7695ZM11.3496 20.8115L11.0869 21.2369C11.2411 21.3322 11.4348 21.3365 11.5931 21.2482C11.7515 21.1599 11.8496 20.9928 11.8496 20.8115H11.3496ZM11.3496 20.7256V20.2256C11.0735 20.2256 10.8496 20.4494 10.8496 20.7256H11.3496ZM25.2969 20.7256V21.2256C25.3897 21.2256 25.4807 21.1998 25.5596 21.151L25.2969 20.7256ZM30.083 17.7695L30.3457 18.1949C30.4932 18.1038 30.583 17.9429 30.583 17.7695H30.083ZM30.083 6.93066H30.583C30.583 6.65452 30.3592 6.43066 30.083 6.43066V6.93066ZM6.4248 6.93066V6.43066C6.14866 6.43066 5.9248 6.65452 5.9248 6.93066H6.4248ZM28.1172 17.7803V18.2803C28.3933 18.2803 28.6172 18.0564 28.6172 17.7803H28.1172ZM8.39062 17.7803H7.89062C7.89062 18.0564 8.11448 18.2803 8.39062 18.2803V17.7803ZM8.39062 16.7803V16.2803C8.11448 16.2803 7.89062 16.5041 7.89062 16.7803H8.39062ZM28.1172 16.7803H28.6172C28.6172 16.5041 28.3933 16.2803 28.1172 16.2803V16.7803ZM5.4248 17.1514L5.16222 17.5769C5.31646 17.6721 5.51015 17.6763 5.66843 17.588C5.82671 17.4997 5.9248 17.3326 5.9248 17.1514H5.4248ZM5.4248 15.3223H5.9248C5.9248 15.0461 5.70095 14.8223 5.4248 14.8223V15.3223ZM2.46094 15.3223V14.8223C2.23736 14.8223 2.04095 14.9707 1.97992 15.1858C1.9189 15.4009 2.00808 15.6303 2.19835 15.7478L2.46094 15.3223ZM31.083 17.1514H30.583C30.583 17.3326 30.6811 17.4997 30.8394 17.588C30.9977 17.6763 31.1914 17.672 31.3457 17.5768L31.083 17.1514ZM34.0459 15.3223L34.3085 15.7477C34.4988 15.6303 34.5879 15.4008 34.5269 15.1858C34.4659 14.9707 34.2695 14.8223 34.0459 14.8223V15.3223ZM31.083 15.3223V14.8223C30.8069 14.8223 30.583 15.0461 30.583 15.3223H31.083ZM1.49316 13.5996L1.21031 13.1873C1.07439 13.2806 0.993164 13.4348 0.993164 13.5996H1.49316ZM1.49316 14.3223H0.993164C0.993164 14.5984 1.21702 14.8223 1.49316 14.8223V14.3223ZM5.4248 14.3223V14.8223C5.70095 14.8223 5.9248 14.5984 5.9248 14.3223H5.4248ZM5.4248 10.9023H5.9248C5.9248 10.7168 5.82201 10.5464 5.6578 10.4599C5.49359 10.3735 5.29499 10.3851 5.14195 10.49L5.4248 10.9023ZM31.083 14.3223H30.583C30.583 14.5984 30.8069 14.8223 31.083 14.8223V14.3223ZM35.0137 14.3223V14.8223C35.2898 14.8223 35.5137 14.5984 35.5137 14.3223H35.0137ZM35.0137 13.5996H35.5137C35.5137 13.4348 35.4324 13.2805 35.2965 13.1873L35.0137 13.5996ZM31.083 10.9033L31.3658 10.491C31.2128 10.386 31.0142 10.3744 30.85 10.4609C30.6858 10.5474 30.583 10.7177 30.583 10.9033H31.083ZM28.1172 13.835V14.335C28.3933 14.335 28.6172 14.1111 28.6172 13.835H28.1172ZM8.39062 13.835H7.89062C7.89062 14.1111 8.11448 14.335 8.39062 14.335V13.835ZM8.39062 12.835V12.335C8.11448 12.335 7.89062 12.5588 7.89062 12.835H8.39062ZM28.1172 12.835H28.6172C28.6172 12.5588 28.3933 12.335 28.1172 12.335V12.835ZM28.1172 9.88965V10.3896C28.3933 10.3896 28.6172 10.1658 28.6172 9.88965H28.1172ZM8.39062 9.88965H7.89062C7.89062 10.1658 8.11448 10.3896 8.39062 10.3896V9.88965ZM8.39062 8.88965V8.38965C8.11448 8.38965 7.89062 8.61351 7.89062 8.88965H8.39062ZM28.1172 8.88965H28.6172C28.6172 8.61351 28.3933 8.38965 28.1172 8.38965V8.88965ZM12.6768 5.93066L12.394 5.51829C12.2133 5.6422 12.1343 5.86936 12.1992 6.07867C12.264 6.28798 12.4576 6.43066 12.6768 6.43066V5.93066ZM23.8291 5.93066V6.43066C24.0482 6.43066 24.2418 6.28798 24.3067 6.07867C24.3716 5.86936 24.2926 5.6422 24.1118 5.51829L23.8291 5.93066ZM18.2529 2.10742L18.5357 1.69504C18.3653 1.57821 18.1406 1.57821 17.9702 1.69504L18.2529 2.10742ZM17.9707 1.08789L18.2534 1.50029L18.2536 1.50039L18.5361 1.08789L18.8187 0.675389C18.4781 0.442113 18.0288 0.441839 17.688 0.675492L17.9707 1.08789ZM18.5361 1.08789L18.2534 1.50026L25.3159 6.34303L25.5986 5.93066L25.8814 5.5183L18.8189 0.675524L18.5361 1.08789ZM25.5986 5.93066V6.43066H30.583V5.93066V5.43066H25.5986V5.93066ZM30.583 5.93066L30.5825 6.43066L30.583 6.43078L31.083 6.43066L31.583 6.43055C31.5829 5.87817 31.1347 5.43125 30.5835 5.43066L30.583 5.93066ZM31.083 6.43066H30.583V9.69043H31.083H31.583V6.43066H31.083ZM31.083 9.69043L30.8002 10.1028L35.514 13.3362L35.7969 12.9238L36.0797 12.5115L31.3658 9.27811L31.083 9.69043ZM35.7969 12.9238L35.5137 13.3359L35.5137 13.3361L36.0137 13.3359L36.5137 13.3358C36.5136 13.0068 36.3516 12.6984 36.08 12.5117L35.7969 12.9238ZM36.0137 13.3359H35.5137V15.3086H36.0137H36.5137V13.3359H36.0137ZM36.0137 15.3086V14.8086H36.0068V15.3086V15.8086H36.0137V15.3086ZM36.0068 15.3086H35.5068V37.0078H36.0068H36.5068V15.3086H36.0068ZM36.0068 37.0078V36.5078H0.5V37.0078V37.5078H36.0068V37.0078ZM0.5 37.0078H1V15.3086H0.5H0V37.0078H0.5ZM0.5 15.3086V14.8086H0.493164V15.3086V15.8086H0.5V15.3086ZM0.493164 15.3086H0.993164V13.3359H0.493164H-0.00683594V15.3086H0.493164ZM0.493164 13.3359L0.993164 13.3361L0.993343 13.3358L0.709961 12.9238L0.426579 12.5119C0.155492 12.6984 -0.00674039 13.0066 -0.00683592 13.3358L0.493164 13.3359ZM0.709961 12.9238L0.992805 13.3361L5.70765 10.1018L5.4248 9.68945L5.14196 9.27714L0.427117 12.5115L0.709961 12.9238ZM5.4248 9.68945H5.9248V6.43066H5.4248H4.9248V9.68945H5.4248ZM5.4248 6.43066L5.92246 6.47898L5.93223 6.37839L5.43457 6.33008L4.93691 6.28176L4.92714 6.38235L5.4248 6.43066ZM5.43457 6.33008L5.92444 6.4302L5.9248 6.43066V5.93066V5.43066C5.44124 5.43066 5.03796 5.7736 4.9447 6.22996L5.43457 6.33008ZM5.9248 5.93066V6.43066H10.9082V5.93066V5.43066H5.9248V5.93066ZM10.9082 5.93066L11.191 6.34303L18.2535 1.50026L17.9707 1.08789L17.6879 0.675524L10.6254 5.5183L10.9082 5.93066ZM2.45898 36.0078V36.5078H34.0479V36.0078V35.5078H2.45898V36.0078ZM34.0479 36.0078L34.3106 35.5824L18.5157 25.8266L18.2529 26.252L17.9902 26.6774L33.7851 36.4332L34.0479 36.0078ZM18.2529 26.252L17.9902 25.8266L2.19622 35.5824L2.45898 36.0078L2.72175 36.4332L18.5157 26.6773L18.2529 26.252ZM1.5 35.4248L1.76276 35.8502L17.5645 26.0895L17.3018 25.6641L17.039 25.2387L1.23724 34.9994L1.5 35.4248ZM17.3018 25.6641L17.5645 25.2387L1.76274 15.4789L1.5 15.9043L1.23726 16.3297L17.039 26.0895L17.3018 25.6641ZM1.5 15.9043H1V35.4248H1.5H2V15.9043H1.5ZM19.2051 25.6641L18.9423 26.0895L34.7441 35.8502L35.0068 35.4248L35.2696 34.9994L19.4678 25.2387L19.2051 25.6641ZM35.0068 35.4248H35.5068V15.9043H35.0068H34.5068V35.4248H35.0068ZM35.0068 15.9043L34.7441 15.4789L18.9423 25.2387L19.2051 25.6641L19.4678 26.0895L35.2696 16.3297L35.0068 15.9043ZM12.8291 21.7256L12.5663 22.151L17.9902 25.5016L18.2529 25.0762L18.5157 24.6508L13.0919 21.3002L12.8291 21.7256ZM18.2529 25.0762L18.5157 25.5016L23.9405 22.151L23.6777 21.7256L23.415 21.3002L17.9902 24.6508L18.2529 25.0762ZM23.6777 21.7256V21.2256H12.8291V21.7256V22.2256H23.6777V21.7256ZM6.4248 17.7695L6.16205 18.1949L11.0869 21.2369L11.3496 20.8115L11.6124 20.3861L6.68756 17.3441L6.4248 17.7695ZM11.3496 20.8115H11.8496V20.7256H11.3496H10.8496V20.8115H11.3496ZM11.3496 20.7256V21.2256H25.2969V20.7256V20.2256H11.3496V20.7256ZM25.2969 20.7256L25.5596 21.151L30.3457 18.1949L30.083 17.7695L29.8203 17.3441L25.0341 20.3002L25.2969 20.7256ZM30.083 17.7695H30.583V6.93066H30.083H29.583V17.7695H30.083ZM30.083 6.93066V6.43066H6.4248V6.93066V7.43066H30.083V6.93066ZM6.4248 6.93066H5.9248V17.7695H6.4248H6.9248V6.93066H6.4248ZM28.1172 17.7803V17.2803H8.39062V17.7803V18.2803H28.1172V17.7803ZM8.39062 17.7803H8.89062V16.7803H8.39062H7.89062V17.7803H8.39062ZM8.39062 16.7803V17.2803H28.1172V16.7803V16.2803H8.39062V16.7803ZM28.1172 16.7803H27.6172V17.7803H28.1172H28.6172V16.7803H28.1172ZM5.4248 17.1514H5.9248V15.3223H5.4248H4.9248V17.1514H5.4248ZM5.4248 15.3223V14.8223H2.46094V15.3223V15.8223H5.4248V15.3223ZM2.46094 15.3223L2.19835 15.7478L5.16222 17.5769L5.4248 17.1514L5.68739 16.7259L2.72353 14.8968L2.46094 15.3223ZM31.083 17.1514L31.3457 17.5768L34.3085 15.7477L34.0459 15.3223L33.7832 14.8968L30.8204 16.7259L31.083 17.1514ZM34.0459 15.3223V14.8223H31.083V15.3223V15.8223H34.0459V15.3223ZM31.083 15.3223H30.583V17.1514H31.083H31.583V15.3223H31.083ZM1.49316 13.5996H0.993164V14.3223H1.49316H1.99316V13.5996H1.49316ZM1.49316 14.3223V14.8223H5.4248V14.3223V13.8223H1.49316V14.3223ZM5.4248 14.3223H5.9248V10.9023H5.4248H4.9248V14.3223H5.4248ZM5.4248 10.9023L5.14195 10.49L1.21031 13.1873L1.49316 13.5996L1.77602 14.0119L5.70766 11.3146L5.4248 10.9023ZM31.083 14.3223V14.8223H35.0137V14.3223V13.8223H31.083V14.3223ZM35.0137 14.3223H35.5137V13.5996H35.0137H34.5137V14.3223H35.0137ZM35.0137 13.5996L35.2965 13.1873L31.3658 10.491L31.083 10.9033L30.8002 11.3156L34.7308 14.0119L35.0137 13.5996ZM31.083 10.9033H30.583V14.3223H31.083H31.583V10.9033H31.083ZM28.1172 13.835V13.335H8.39062V13.835V14.335H28.1172V13.835ZM8.39062 13.835H8.89062V12.835H8.39062H7.89062V13.835H8.39062ZM8.39062 12.835V13.335H28.1172V12.835V12.335H8.39062V12.835ZM28.1172 12.835H27.6172V13.835H28.1172H28.6172V12.835H28.1172ZM28.1172 9.88965V9.38965H8.39062V9.88965V10.3896H28.1172V9.88965ZM8.39062 9.88965H8.89062V8.88965H8.39062H7.89062V9.88965H8.39062ZM8.39062 8.88965V9.38965H28.1172V8.88965V8.38965H8.39062V8.88965ZM28.1172 8.88965H27.6172V9.88965H28.1172H28.6172V8.88965H28.1172ZM12.6768 5.93066V6.43066H23.8291V5.93066V5.43066H12.6768V5.93066ZM23.8291 5.93066L24.1118 5.51829L18.5357 1.69504L18.2529 2.10742L17.9702 2.5198L23.5464 6.34304L23.8291 5.93066ZM18.2529 2.10742L17.9702 1.69504L12.394 5.51829L12.6768 5.93066L12.9595 6.34304L18.5357 2.5198L18.2529 2.10742Z" fill="black"/>
</svg>
